# xmcd
#
# Track frame offsets: 
#        150
#        14311
#        27777
#        41008
#        50983
#        66693
#        84107
#        94291
#        120051
#        135151
#        151702
#        190669
#        207238
#        217820
#        246842
#        279424
#        294691
#
# Disc length: 4223 seconds
#
# Revision: 0
# Processed by: cddbd v1.5.2PL0 Copyright (c) Steve Scherf et al.
# Submitted via: ExactAudioCopy v0.95b3
#
DISCID=e5107d11
DTITLE=Creedence Clearwater Revival  - Collected - Disc 3
DYEAR=1900
DGENRE=
TTITLE0=Run Through The Jungle
TTITLE1=Cotton Fields
TTITLE2=It Came Out Of The Sky
TTITLE3=Don't Look Back
TTITLE4=Before You Accuse Me
TTITLE5=Gloomy
TTITLE6=Hello Mary Lou
TTITLE7=Born To Move
TTITLE8=Chameleon
TTITLE9=Tombstone Shadow
TTITLE10=Graveyard Train
TTITLE11=Penthouse Pauper
TTITLE12=My Baby Left Me
TTITLE13=Pagan Baby
TTITLE14=Ramble Tamble
TTITLE15=Sinster Purpose
TTITLE16=Wrote A Song For Everyone
EXTD=
EXTT0=
EXTT1=
EXTT2=
EXTT3=
EXTT4=
EXTT5=
EXTT6=
EXTT7=
EXTT8=
EXTT9=
EXTT10=
EXTT11=
EXTT12=
EXTT13=
EXTT14=
EXTT15=
EXTT16=
PLAYORDER=
